<svg width="1600" height="900" viewBox="0 0 1600 900" fill="none" xmlns="http://www.w3.org/2000/svg">
  <rect width="1600" height="900" fill="#F5F0E7"/>
  <rect x="88" y="88" width="1424" height="724" rx="38" fill="#FFF9F2" stroke="#D9CFC0" stroke-width="2"/>

  <text x="132" y="176" fill="#B5641D" font-size="28" font-family="Georgia, serif" letter-spacing="5">ENGINEERING MANAGEMENT</text>
  <text x="132" y="264" fill="#14110F" font-size="78" font-family="Georgia, serif">AI Makes Generation Cheap.</text>
  <text x="132" y="336" fill="#14110F" font-size="78" font-family="Georgia, serif">Management Has to Raise</text>
  <text x="132" y="408" fill="#14110F" font-size="78" font-family="Georgia, serif">Judgment and Validation.</text>

  <text x="132" y="476" fill="#5E554C" font-size="30" font-family="Georgia, serif">
    The job shifts from tracking effort to designing better learning loops.
  </text>

  <rect x="132" y="578" width="292" height="126" rx="26" fill="#FDF7EF" stroke="#14110F" stroke-width="5"/>
  <text x="171" y="620" fill="#B5641D" font-size="22" font-family="Arial, sans-serif" letter-spacing="4">OLD BOTTLENECK</text>
  <text x="171" y="672" fill="#14110F" font-size="54" font-family="Georgia, serif">Effort</text>

  <path d="M442 641H614" stroke="#14110F" stroke-width="6" stroke-linecap="round"/>
  <path d="M591 619L624 641L591 663" stroke="#14110F" stroke-width="6" stroke-linecap="round" stroke-linejoin="round"/>

  <rect x="650" y="578" width="316" height="126" rx="26" fill="#FDF7EF" stroke="#14110F" stroke-width="5"/>
  <text x="690" y="620" fill="#B5641D" font-size="22" font-family="Arial, sans-serif" letter-spacing="4">AI SHIFT</text>
  <text x="690" y="672" fill="#14110F" font-size="52" font-family="Georgia, serif">Generation</text>

  <path d="M988 641H1138" stroke="#14110F" stroke-width="6" stroke-linecap="round"/>
  <path d="M1115 619L1148 641L1115 663" stroke="#14110F" stroke-width="6" stroke-linecap="round" stroke-linejoin="round"/>

  <rect x="1164" y="548" width="312" height="164" rx="28" fill="#14110F"/>
  <text x="1201" y="601" fill="#D8C3A6" font-size="20" font-family="Arial, sans-serif" letter-spacing="4">NEW EM FOCUS</text>
  <text x="1201" y="655" fill="#F5F0E7" font-size="44" font-family="Georgia, serif">Judgment</text>
  <text x="1201" y="703" fill="#F5F0E7" font-size="44" font-family="Georgia, serif">+ Validation</text>

  <path d="M1068 176C1131 194 1180 229 1213 283" stroke="#B5641D" stroke-width="8" stroke-linecap="round"/>
  <path d="M1185 272L1219 295L1174 302" stroke="#B5641D" stroke-width="8" stroke-linecap="round" stroke-linejoin="round"/>

  <path d="M1038 273C1095 286 1137 316 1168 360" stroke="#14110F" stroke-width="5" stroke-linecap="round" stroke-dasharray="1 18"/>
  <circle cx="1170" cy="362" r="8" fill="#14110F"/>
</svg>
